<svg xmlns="http://www.w3.org/2000/svg" version="1.1" xmlns:xlink="http://www.w3.org/1999/xlink" xmlns:svgjs="http://svgjs.dev/svgjs" width="1920" height="1080" preserveAspectRatio="none" viewBox="0 0 1920 1080"><g mask="url(&quot;#SvgjsMask1030&quot;)" fill="none"><rect width="1920" height="1080" x="0" y="0" fill="rgba(23, 23, 23, 1)"></rect><path d="M0,665.267C122.857,652.967,170.472,493.524,276.41,430.102C387.764,363.437,554.691,393.316,630.371,287.881C706.222,182.208,671.494,34.868,652.469,-93.811C633.507,-222.063,607.309,-354.707,521.053,-451.495C435.307,-547.711,308.311,-593.679,182.418,-621.259C62.671,-647.492,-61.629,-644.531,-177.505,-604.528C-290.004,-565.691,-378.783,-485.532,-460.736,-399.23C-546.087,-309.349,-654.454,-218.838,-661.278,-95.077C-668.052,27.768,-558.02,120.362,-495.22,226.159C-439.782,319.554,-395.69,417.2,-314.426,489.256C-222.697,570.592,-121.986,677.48,0,665.267" fill="#151515"></path><path d="M1920 1766.761C2088.589 1787.701 2258.558 1917.981 2412.8559999999998 1846.899 2566.1369999999997 1776.286 2611.447 1580.6680000000001 2668.624 1421.885 2721.959 1273.769 2770.202 1115.863 2730.999 963.396 2693.406 817.19 2576.1459999999997 708.6320000000001 2460.332 611.799 2358.088 526.313 2225.054 504.461 2107.346 441.95799999999997 1951.687 359.303 1831.646 159.461 1657.3220000000001 185.39999999999998 1487.652 210.64700000000005 1402.1889999999999 409.225 1319.0320000000002 559.259 1247.807 687.765 1252.4 836.28 1217.473 978.992 1177.857 1140.867 1041.492 1298.443 1099.933 1454.512 1158.127 1609.92 1344.926 1674.466 1500.01 1733.516 1633.965 1784.521 1777.756 1749.0929999999998 1920 1766.761" fill="#191919"></path></g><defs><mask id="SvgjsMask1030"><rect width="1920" height="1080" fill="#ffffff"></rect></mask></defs></svg>